<svg xmlns="http://www.w3.org/2000/svg" xmlns:xlink="http://www.w3.org/1999/xlink" t="1637765234585" class="icon" viewBox="0 0 1024 1024" version="1.1" p-id="4177" width="128" height="128"><defs><style type="text/css"/></defs><path d="M191.25 407.808L653.003 222.75s34.018-19.438 53.831 8.231c24.085 33.62 132.198 189.534 132.198 189.534" fill="#5CC2E4" p-id="4178"/><path d="M822.074 432.276c-1.084-1.56-108.299-156.17-132.015-189.281-8.862-12.383-26.091-2.748-26.813-2.323a21.94 21.94 0 0 1-2.564 1.232L198.929 426.971l-15.357-38.316 460.584-184.592c17.986-9.627 55.842-18.085 79.461 14.897 23.899 33.364 127.954 183.423 132.374 189.79l-33.917 23.526z" fill="#353533" p-id="4179"/><path d="M849.142 731.525c0 23.32-18.914 42.22-42.234 42.22H204.477c-23.313 0-42.228-18.899-42.228-42.22V447.902c0-23.319 18.914-42.233 42.228-42.233h602.431c23.32 0 42.234 18.914 42.234 42.233v283.623z" fill="#F1CA4E" p-id="4180"/><path d="M806.907 794.388h-602.43c-34.662 0-62.862-28.201-62.862-62.862V447.902c0-34.668 28.2-62.869 62.862-62.869h602.431c34.669 0 62.869 28.201 62.869 62.869v283.623c-0.001 34.662-28.201 62.863-62.87 62.863z m-602.43-368.076c-11.908 0-21.585 9.676-21.585 21.591v283.623c0 11.9 9.677 21.584 21.585 21.584h602.431c11.915 0 21.592-9.684 21.592-21.584V447.902c0-11.915-9.677-21.591-21.592-21.591H204.477z" fill="#353533" p-id="4181"/><path d="M537.126 296.479c0 30.418-24.659 55.077-55.076 55.077-30.411 0-55.077-24.659-55.077-55.077 0-30.411 24.666-55.069 55.077-55.069 30.417-0.001 55.076 24.657 55.076 55.069z" fill="#E74561" p-id="4182"/><path d="M482.05 372.191c-41.745 0-75.713-33.961-75.713-75.713 0-41.738 33.968-75.698 75.713-75.698s75.712 33.96 75.712 75.698c0 41.752-33.967 75.713-75.712 75.713z m0-110.14c-18.992 0-34.435 15.443-34.435 34.428 0 18.993 15.442 34.442 34.435 34.442 18.991 0 34.434-15.449 34.434-34.442-0.001-18.985-15.443-34.428-34.434-34.428z" fill="#353533" p-id="4183"/><path d="M470.581 263.248c-10.527 0-19.524-8.019-20.515-18.716-3.315-35.397-11.986-74.656-73.262-92.323-10.951-3.159-17.271-14.601-14.111-25.544 3.16-10.959 14.606-17.271 25.553-14.111 93.428 26.947 100.313 100.463 102.906 128.133 1.063 11.349-7.275 21.407-18.616 22.47-0.659 0.063-1.31 0.091-1.955 0.091z" fill="#353533" p-id="4184"/><path d="M162.249 539.086h686.893v113.61H162.249z" fill="#8AC78A" p-id="4185"/><path d="M849.142 673.339H162.249c-11.398 0-20.635-9.245-20.635-20.643v-113.61c0-11.391 9.236-20.636 20.635-20.636h686.893c11.391 0 20.635 9.245 20.635 20.636v113.61c-0.001 11.398-9.245 20.643-20.635 20.643z m-666.25-41.277h645.607v-72.333H182.892v72.333z" fill="#363634" p-id="4186"/></svg>